<svg id="Layer_1" data-name="Layer 1" xmlns="http://www.w3.org/2000/svg" viewBox="0 0 41.58 41.58"><defs><style>.cls-1{fill:none;stroke:#fff;stroke-width:3px;}</style></defs><title>favicon</title><circle class="cls-1" cx="20.79" cy="20.79" r="19.29"/><path class="cls-1" d="M362.17,303.64a27.86,27.86,0,0,1-12.24,7.45c-4,1-7.16.43-9.05-1.46s-2.48-5.09-1.46-9.05a30.27,30.27,0,0,1,19.68-19.69c4-1,7.16-.43,9.06,1.46s2.48,5.09,1.46,9A27.9,27.9,0,0,1,362.17,303.64Z" transform="translate(-333.73 -275.2)"/><path class="cls-1" d="M362.17,288.34a27.9,27.9,0,0,1,7.45,12.24c1,4,.43,7.16-1.46,9.05s-5.09,2.48-9.06,1.46a30.27,30.27,0,0,1-19.68-19.69c-1-4-.44-7.16,1.46-9s5.08-2.48,9.05-1.46A27.86,27.86,0,0,1,362.17,288.34Z" transform="translate(-333.73 -275.2)"/></svg>